<mxfile host="Electron" agent="Mozilla/5.0 (Windows NT 10.0; Win64; x64) AppleWebKit/537.36 (KHTML, like Gecko) draw.io/26.2.15 Chrome/134.0.6998.205 Electron/35.2.1 Safari/537.36" version="26.2.15">
  <diagram id="Ht1M8jgEwFfnCIfOTk4-" name="Page-1">
    <mxGraphModel dx="3152" dy="1527" grid="1" gridSize="10" guides="1" tooltips="1" connect="1" arrows="1" fold="1" page="1" pageScale="1" pageWidth="1169" pageHeight="827" math="0" shadow="0">
      <root>
        <mxCell id="0" />
        <mxCell id="1" parent="0" />
        <mxCell id="XRZrm3slOitllg8Y0fcK-1" value="" style="rounded=1;whiteSpace=wrap;html=1;fillColor=#dae8fc;strokeColor=#6c8ebf;" vertex="1" parent="1">
          <mxGeometry x="-830" y="-780" width="550" height="40" as="geometry" />
        </mxCell>
        <mxCell id="XRZrm3slOitllg8Y0fcK-2" value="ecisaccountsync\src\endpoints\manage\api_kscim.ts" style="text;html=1;align=center;verticalAlign=middle;resizable=0;points=[];autosize=1;strokeColor=none;fillColor=none;" vertex="1" parent="1">
          <mxGeometry x="-750" y="-810" width="300" height="30" as="geometry" />
        </mxCell>
        <mxCell id="XRZrm3slOitllg8Y0fcK-3" value="&lt;div style=&quot;color: rgb(204, 204, 204); font-family: Consolas, &amp;quot;Courier New&amp;quot;, monospace; line-height: 19px; white-space: pre;&quot;&gt;&lt;span style=&quot;color: rgb(206, 145, 120);&quot;&gt;&lt;font style=&quot;font-size: 11px;&quot;&gt;config-save&lt;/font&gt;&lt;/span&gt;&lt;/div&gt;" style="rounded=0;whiteSpace=wrap;html=1;fillColor=#d5e8d4;strokeColor=#82b366;" vertex="1" parent="1">
          <mxGeometry x="-820" y="-775" width="80" height="30" as="geometry" />
        </mxCell>
        <mxCell id="XRZrm3slOitllg8Y0fcK-4" value="&lt;div style=&quot;color: rgb(204, 204, 204); font-family: Consolas, &amp;quot;Courier New&amp;quot;, monospace; line-height: 19px; white-space: pre;&quot;&gt;&lt;span style=&quot;color: rgb(206, 145, 120);&quot;&gt;&lt;font style=&quot;font-size: 11px;&quot;&gt;config-get&lt;/font&gt;&lt;/span&gt;&lt;/div&gt;" style="rounded=0;whiteSpace=wrap;html=1;fillColor=#d5e8d4;strokeColor=#82b366;" vertex="1" parent="1">
          <mxGeometry x="-730" y="-775" width="80" height="30" as="geometry" />
        </mxCell>
        <mxCell id="XRZrm3slOitllg8Y0fcK-5" value="&lt;div style=&quot;font-family: Consolas, &amp;quot;Courier New&amp;quot;, monospace; line-height: 19px; white-space: pre; color: rgb(204, 204, 204);&quot;&gt;&lt;font color=&quot;#ce9178&quot;&gt;&lt;span style=&quot;font-size: 11px;&quot;&gt;test&lt;/span&gt;&lt;/font&gt;&lt;/div&gt;" style="rounded=0;whiteSpace=wrap;html=1;fillColor=#d5e8d4;strokeColor=#82b366;" vertex="1" parent="1">
          <mxGeometry x="-640" y="-775" width="80" height="30" as="geometry" />
        </mxCell>
        <mxCell id="XRZrm3slOitllg8Y0fcK-6" value="&lt;div style=&quot;font-family: Consolas, &amp;quot;Courier New&amp;quot;, monospace; line-height: 19px; white-space: pre; color: rgb(204, 204, 204);&quot;&gt;&lt;font color=&quot;#ce9178&quot;&gt;&lt;span style=&quot;font-size: 11px;&quot;&gt;field-save&lt;/span&gt;&lt;/font&gt;&lt;/div&gt;" style="rounded=0;whiteSpace=wrap;html=1;fillColor=#d5e8d4;strokeColor=#82b366;" vertex="1" parent="1">
          <mxGeometry x="-550" y="-775" width="80" height="30" as="geometry" />
        </mxCell>
        <mxCell id="XRZrm3slOitllg8Y0fcK-7" value="&lt;div style=&quot;font-family: Consolas, &amp;quot;Courier New&amp;quot;, monospace; line-height: 19px; white-space: pre; color: rgb(204, 204, 204);&quot;&gt;&lt;font color=&quot;#ce9178&quot;&gt;&lt;span style=&quot;font-size: 11px;&quot;&gt;feild-mapping&lt;/span&gt;&lt;/font&gt;&lt;/div&gt;" style="rounded=0;whiteSpace=wrap;html=1;fillColor=#d5e8d4;strokeColor=#82b366;" vertex="1" parent="1">
          <mxGeometry x="-460" y="-775" width="80" height="30" as="geometry" />
        </mxCell>
        <mxCell id="XRZrm3slOitllg8Y0fcK-8" value="&lt;div style=&quot;font-family: Consolas, &amp;quot;Courier New&amp;quot;, monospace; line-height: 19px; white-space: pre; color: rgb(204, 204, 204);&quot;&gt;&lt;font color=&quot;#ce9178&quot;&gt;&lt;span style=&quot;font-size: 11px;&quot;&gt;sync&lt;/span&gt;&lt;/font&gt;&lt;/div&gt;" style="rounded=0;whiteSpace=wrap;html=1;fillColor=#d5e8d4;strokeColor=#82b366;" vertex="1" parent="1">
          <mxGeometry x="-370" y="-775" width="80" height="30" as="geometry" />
        </mxCell>
        <mxCell id="XRZrm3slOitllg8Y0fcK-9" value="" style="rounded=1;whiteSpace=wrap;html=1;fillColor=#dae8fc;strokeColor=#6c8ebf;" vertex="1" parent="1">
          <mxGeometry x="-1110" y="-690" width="170" height="90" as="geometry" />
        </mxCell>
        <mxCell id="XRZrm3slOitllg8Y0fcK-10" value="ecisaccountsync\src\modules\db\tables\KSCIMConfig.ts" style="text;html=1;align=center;verticalAlign=middle;resizable=0;points=[];autosize=1;strokeColor=none;fillColor=none;" vertex="1" parent="1">
          <mxGeometry x="-1169" y="-730" width="320" height="30" as="geometry" />
        </mxCell>
        <mxCell id="XRZrm3slOitllg8Y0fcK-11" value="&lt;div style=&quot;color: rgb(204, 204, 204); font-family: Consolas, &amp;quot;Courier New&amp;quot;, monospace; font-size: 14px; line-height: 19px; white-space: pre;&quot;&gt;&lt;span style=&quot;color: rgb(78, 201, 176);&quot;&gt;KSCIMConfigSchema&lt;/span&gt;&lt;/div&gt;" style="rounded=0;whiteSpace=wrap;html=1;fillColor=#d5e8d4;strokeColor=#82b366;" vertex="1" parent="1">
          <mxGeometry x="-1099.5" y="-682.5" width="149" height="32" as="geometry" />
        </mxCell>
        <mxCell id="XRZrm3slOitllg8Y0fcK-12" value="&lt;div style=&quot;color: rgb(204, 204, 204); font-family: Consolas, &amp;quot;Courier New&amp;quot;, monospace; font-size: 14px; line-height: 19px; white-space: pre;&quot;&gt;&lt;div style=&quot;line-height: 19px;&quot;&gt;&lt;span style=&quot;color: rgb(78, 201, 176);&quot;&gt;KSCIMConfigTable&lt;/span&gt;&lt;/div&gt;&lt;/div&gt;" style="rounded=0;whiteSpace=wrap;html=1;fillColor=#d5e8d4;strokeColor=#82b366;" vertex="1" parent="1">
          <mxGeometry x="-1099.5" y="-642" width="149" height="32" as="geometry" />
        </mxCell>
        <mxCell id="XRZrm3slOitllg8Y0fcK-13" value="" style="rounded=1;whiteSpace=wrap;html=1;fillColor=#dae8fc;strokeColor=#6c8ebf;" vertex="1" parent="1">
          <mxGeometry x="-1121" y="-524" width="170" height="90" as="geometry" />
        </mxCell>
        <mxCell id="XRZrm3slOitllg8Y0fcK-14" value="ecisaccountsync\src\modules\db\tables\KSCIMFieldMapping.ts" style="text;html=1;align=center;verticalAlign=middle;resizable=0;points=[];autosize=1;strokeColor=none;fillColor=none;" vertex="1" parent="1">
          <mxGeometry x="-1200" y="-564" width="360" height="30" as="geometry" />
        </mxCell>
        <mxCell id="XRZrm3slOitllg8Y0fcK-15" value="&lt;div style=&quot;color: rgb(204, 204, 204); font-family: Consolas, &amp;quot;Courier New&amp;quot;, monospace; line-height: 19px; white-space: pre;&quot;&gt;&lt;div style=&quot;line-height: 19px;&quot;&gt;&lt;span style=&quot;color: rgb(78, 201, 176);&quot;&gt;&lt;font style=&quot;font-size: 11px;&quot;&gt;KSCIMFieldMappingSchema&lt;/font&gt;&lt;/span&gt;&lt;/div&gt;&lt;/div&gt;" style="rounded=0;whiteSpace=wrap;html=1;fillColor=#d5e8d4;strokeColor=#82b366;" vertex="1" parent="1">
          <mxGeometry x="-1110.5" y="-516.5" width="149" height="32" as="geometry" />
        </mxCell>
        <mxCell id="XRZrm3slOitllg8Y0fcK-16" value="&lt;div style=&quot;color: rgb(204, 204, 204); font-family: Consolas, &amp;quot;Courier New&amp;quot;, monospace; line-height: 19px; white-space: pre;&quot;&gt;&lt;div style=&quot;line-height: 19px;&quot;&gt;&lt;div style=&quot;line-height: 19px;&quot;&gt;&lt;span style=&quot;color: rgb(78, 201, 176);&quot;&gt;&lt;font style=&quot;font-size: 11px;&quot;&gt;KSCIMFieldMappingTable&lt;/font&gt;&lt;/span&gt;&lt;/div&gt;&lt;/div&gt;&lt;/div&gt;" style="rounded=0;whiteSpace=wrap;html=1;fillColor=#d5e8d4;strokeColor=#82b366;" vertex="1" parent="1">
          <mxGeometry x="-1110.5" y="-476" width="149" height="32" as="geometry" />
        </mxCell>
        <mxCell id="XRZrm3slOitllg8Y0fcK-17" value="" style="rounded=1;whiteSpace=wrap;html=1;fillColor=#dae8fc;strokeColor=#6c8ebf;" vertex="1" parent="1">
          <mxGeometry x="-730" y="-570" width="550" height="85" as="geometry" />
        </mxCell>
        <mxCell id="XRZrm3slOitllg8Y0fcK-18" value="ecisaccountsync\src\modules\kscim\KSCIMService.ts" style="text;html=1;align=center;verticalAlign=middle;resizable=0;points=[];autosize=1;strokeColor=none;fillColor=none;" vertex="1" parent="1">
          <mxGeometry x="-640" y="-610" width="310" height="30" as="geometry" />
        </mxCell>
        <mxCell id="XRZrm3slOitllg8Y0fcK-19" value="&lt;div style=&quot;color: rgb(204, 204, 204); font-family: Consolas, &amp;quot;Courier New&amp;quot;, monospace; line-height: 19px; white-space: pre;&quot;&gt;&lt;div style=&quot;color: rgb(216, 222, 233); line-height: 19px;&quot;&gt;&lt;span style=&quot;color: rgb(239, 176, 128); font-weight: bold;&quot;&gt;&lt;font style=&quot;font-size: 13px;&quot;&gt;saveConfig&lt;/font&gt;&lt;/span&gt;&lt;/div&gt;&lt;/div&gt;" style="rounded=0;whiteSpace=wrap;html=1;fillColor=#d5e8d4;strokeColor=#82b366;" vertex="1" parent="1">
          <mxGeometry x="-720" y="-535" width="80" height="30" as="geometry" />
        </mxCell>
        <mxCell id="XRZrm3slOitllg8Y0fcK-20" value="&lt;div style=&quot;color: rgb(204, 204, 204); font-family: Consolas, &amp;quot;Courier New&amp;quot;, monospace; line-height: 19px; white-space: pre;&quot;&gt;&lt;div style=&quot;color: rgb(216, 222, 233); line-height: 19px;&quot;&gt;&lt;span style=&quot;color: rgb(239, 176, 128); font-weight: bold;&quot;&gt;&lt;font style=&quot;font-size: 13px;&quot;&gt;getConfig&lt;/font&gt;&lt;/span&gt;&lt;/div&gt;&lt;/div&gt;" style="rounded=0;whiteSpace=wrap;html=1;fillColor=#d5e8d4;strokeColor=#82b366;" vertex="1" parent="1">
          <mxGeometry x="-630" y="-535" width="80" height="30" as="geometry" />
        </mxCell>
        <mxCell id="XRZrm3slOitllg8Y0fcK-21" value="&lt;div style=&quot;font-family: Consolas, &amp;quot;Courier New&amp;quot;, monospace; line-height: 19px; white-space: pre; color: rgb(204, 204, 204);&quot;&gt;&lt;div style=&quot;color: rgb(216, 222, 233); line-height: 19px;&quot;&gt;&lt;span style=&quot;color: rgb(239, 176, 128); font-weight: bold;&quot;&gt;&lt;font style=&quot;font-size: 11px;&quot;&gt;testConnection&lt;/font&gt;&lt;/span&gt;&lt;/div&gt;&lt;/div&gt;" style="rounded=0;whiteSpace=wrap;html=1;fillColor=#d5e8d4;strokeColor=#82b366;" vertex="1" parent="1">
          <mxGeometry x="-540" y="-535" width="80" height="30" as="geometry" />
        </mxCell>
        <mxCell id="XRZrm3slOitllg8Y0fcK-22" value="&lt;div style=&quot;font-family: Consolas, &amp;quot;Courier New&amp;quot;, monospace; line-height: 19px; white-space: pre; color: rgb(204, 204, 204);&quot;&gt;&lt;div style=&quot;color: rgb(216, 222, 233); line-height: 19px;&quot;&gt;&lt;span style=&quot;color: rgb(239, 176, 128); font-weight: bold;&quot;&gt;&lt;font style=&quot;font-size: 10px;&quot;&gt;saveFieldMapping&lt;/font&gt;&lt;/span&gt;&lt;/div&gt;&lt;/div&gt;" style="rounded=0;whiteSpace=wrap;html=1;fillColor=#d5e8d4;strokeColor=#82b366;" vertex="1" parent="1">
          <mxGeometry x="-450" y="-535" width="80" height="30" as="geometry" />
        </mxCell>
        <mxCell id="XRZrm3slOitllg8Y0fcK-23" value="&lt;div style=&quot;font-family: Consolas, &amp;quot;Courier New&amp;quot;, monospace; line-height: 19px; white-space: pre; color: rgb(204, 204, 204);&quot;&gt;&lt;div style=&quot;color: rgb(216, 222, 233); line-height: 19px;&quot;&gt;&lt;span style=&quot;color: rgb(239, 176, 128); font-weight: bold;&quot;&gt;&lt;font style=&quot;font-size: 11px;&quot;&gt;getFieldMapping&lt;/font&gt;&lt;/span&gt;&lt;/div&gt;&lt;/div&gt;" style="rounded=0;whiteSpace=wrap;html=1;fillColor=#d5e8d4;strokeColor=#82b366;" vertex="1" parent="1">
          <mxGeometry x="-360" y="-535" width="80" height="30" as="geometry" />
        </mxCell>
        <mxCell id="XRZrm3slOitllg8Y0fcK-24" value="&lt;div style=&quot;font-family: Consolas, &amp;quot;Courier New&amp;quot;, monospace; line-height: 19px; white-space: pre; color: rgb(204, 204, 204);&quot;&gt;&lt;div style=&quot;color: rgb(216, 222, 233); font-size: 14px; line-height: 19px;&quot;&gt;&lt;span style=&quot;color: rgb(239, 176, 128); font-weight: bold;&quot;&gt;syncData&lt;/span&gt;&lt;/div&gt;&lt;/div&gt;" style="rounded=0;whiteSpace=wrap;html=1;fillColor=#d5e8d4;strokeColor=#82b366;" vertex="1" parent="1">
          <mxGeometry x="-270" y="-535" width="80" height="30" as="geometry" />
        </mxCell>
        <mxCell id="XRZrm3slOitllg8Y0fcK-25" value="&lt;div style=&quot;color: rgb(216, 222, 233); font-family: Consolas, &amp;quot;Courier New&amp;quot;, monospace; font-size: 14px; line-height: 19px; white-space-collapse: preserve;&quot;&gt;&lt;span style=&quot;color: rgb(135, 195, 255);&quot;&gt;KSCIMService&lt;/span&gt;&lt;/div&gt;" style="text;html=1;align=center;verticalAlign=middle;resizable=0;points=[];autosize=1;strokeColor=none;fillColor=none;" vertex="1" parent="1">
          <mxGeometry x="-515" y="-570" width="120" height="30" as="geometry" />
        </mxCell>
      </root>
    </mxGraphModel>
  </diagram>
</mxfile>
